<svg width="36" height="36" viewBox="0 0 36 36" fill="none" xmlns="http://www.w3.org/2000/svg">
<rect width="36" height="36" rx="18" fill="#FDF2E3"/>
<path fill-rule="evenodd" clip-rule="evenodd" d="M13.834 15.5003C13.834 15.0401 14.2071 14.667 14.6673 14.667H21.334C21.7942 14.667 22.1673 15.0401 22.1673 15.5003C22.1673 15.9606 21.7942 16.3337 21.334 16.3337H14.6673C14.2071 16.3337 13.834 15.9606 13.834 15.5003Z" fill="#4E4B66"/>
<path fill-rule="evenodd" clip-rule="evenodd" d="M13.834 18.8333C13.834 18.3731 14.2071 18 14.6673 18H18.0007C18.4609 18 18.834 18.3731 18.834 18.8333C18.834 19.2936 18.4609 19.6667 18.0007 19.6667H14.6673C14.2071 19.6667 13.834 19.2936 13.834 18.8333Z" fill="#4E4B66"/>
<path fill-rule="evenodd" clip-rule="evenodd" d="M13.599 22.553C13.8986 22.3034 14.2761 22.1667 14.666 22.1667H23.8327C24.2929 22.1667 24.666 21.7936 24.666 21.3333V13C24.666 12.5398 24.2929 12.1667 23.8327 12.1667H12.166C11.7058 12.1667 11.3327 12.5398 11.3327 13V24.4416L13.599 22.553ZM14.666 23.8333H23.8327C25.2134 23.8333 26.3327 22.714 26.3327 21.3333V13C26.3327 11.6193 25.2134 10.5 23.8327 10.5H12.166C10.7853 10.5 9.66602 11.6193 9.66602 13V24.4416C9.66602 25.8547 11.3141 26.6266 12.3997 25.722L14.666 23.8333Z" fill="#4E4B66"/>
</svg>
