<svg width="48" height="48" viewBox="0 0 48 48" fill="none" xmlns="http://www.w3.org/2000/svg">
<rect width="48" height="48" rx="24" fill="#B1E5FC"/>
<path fill-rule="evenodd" clip-rule="evenodd" d="M21 18.2917C20.3331 18.4905 19.6959 18.7887 19.111 19.1796C17.9599 19.9487 17.0627 21.042 16.5328 22.3211C16.003 23.6002 15.8644 25.0076 16.1345 26.3655C16.4046 27.7234 17.0713 28.9706 18.0503 29.9496C19.0292 30.9286 20.2765 31.5953 21.6344 31.8654C22.9922 32.1355 24.3997 31.9968 25.6788 31.467C26.9579 30.9372 28.0511 30.04 28.8203 28.8889C29.2111 28.3039 29.5094 27.6668 29.7082 26.9999H27.5912C27.4728 27.2716 27.3301 27.5334 27.1639 27.7821C26.6136 28.6056 25.8315 29.2475 24.9164 29.6266C24.0014 30.0056 22.9944 30.1048 22.023 29.9115C21.0516 29.7183 20.1593 29.2413 19.4589 28.541C18.7585 27.8406 18.2816 26.9483 18.0883 25.9769C17.8951 25.0054 17.9943 23.9985 18.3733 23.0834C18.7523 22.1684 19.3942 21.3862 20.2178 20.836C20.4664 20.6698 20.7283 20.527 21 20.4087V18.2917ZM22.002 16.0554C22.5509 15.9941 23 16.4476 23 16.9999V20.992C23 21.5443 22.5404 21.9764 22.0183 22.1567C21.7761 22.2403 21.5443 22.355 21.3289 22.4989C20.8343 22.8294 20.4487 23.2992 20.2211 23.8488C19.9934 24.3984 19.9338 25.0032 20.0499 25.5867C20.166 26.1702 20.4524 26.7061 20.8731 27.1268C21.2938 27.5474 21.8297 27.8339 22.4132 27.95C22.9967 28.066 23.6015 28.0065 24.1511 27.7788C24.7007 27.5511 25.1705 27.1656 25.501 26.671C25.6449 26.4556 25.7596 26.2238 25.8432 25.9816C26.0234 25.4595 26.4556 24.9999 27.0079 24.9999H31C31.5523 24.9999 32.0057 25.4489 31.9445 25.9978C31.7853 27.4248 31.2863 28.7981 30.4832 30C29.4943 31.48 28.0887 32.6336 26.4442 33.3148C24.7996 33.996 22.99 34.1742 21.2442 33.8269C19.4984 33.4797 17.8947 32.6225 16.636 31.3638C15.3774 30.1052 14.5202 28.5015 14.1729 26.7557C13.8257 25.0099 14.0039 23.2003 14.6851 21.5557C15.3663 19.9112 16.5198 18.5056 17.9999 17.5166C19.2017 16.7136 20.5751 16.2146 22.002 16.0554Z" fill="#1A1D1F"/>
<path fill-rule="evenodd" clip-rule="evenodd" d="M31.7082 20.9999C31.6397 20.77 31.5593 20.5435 31.4672 20.3211C31.1154 19.4718 30.5998 18.7001 29.9497 18.0501C29.2997 17.4001 28.5281 16.8845 27.6788 16.5327C27.4564 16.4406 27.2298 16.3602 27 16.2917V18.4087C27.5747 18.659 28.0975 19.0151 28.5411 19.4587C28.9847 19.9024 29.3409 20.4252 29.5912 20.9999H31.7082ZM33.9445 22.0019C34.0057 22.5508 33.5523 22.9999 33 22.9999H29.0079C28.4556 22.9999 28.0234 22.5402 27.8432 22.0182C27.8235 21.9612 27.8021 21.9047 27.7789 21.8488C27.6278 21.4839 27.4062 21.1523 27.1269 20.873C26.8476 20.5937 26.516 20.3721 26.1511 20.2209C26.0952 20.1978 26.0387 20.1764 25.9817 20.1567C25.4596 19.9764 25 19.5443 25 18.992V14.9999C25 14.4476 25.4491 13.9941 25.9979 14.0554C26.8372 14.149 27.6609 14.3605 28.4442 14.6849C29.5361 15.1372 30.5282 15.8002 31.364 16.6359C32.1997 17.4716 32.8626 18.4638 33.3149 19.5557C33.6394 20.339 33.8509 21.1626 33.9445 22.0019Z" fill="#1A1D1F"/>
</svg>
