<svg width="66" height="66" viewBox="0 0 66 66" fill="none" xmlns="http://www.w3.org/2000/svg">
<rect x="5" y="5" width="56" height="56" rx="28" fill="#EFF0F7"/>
<path d="M37.0827 27.7507L41.166 23.6673M43.4993 21.334L41.166 23.6673L43.4993 21.334ZM32.2877 32.5457C32.8901 33.14 33.3689 33.8477 33.6967 34.6279C34.0245 35.4081 34.1947 36.2455 34.1975 37.0917C34.2004 37.938 34.0358 38.7764 33.7132 39.5588C33.3907 40.3412 32.9166 41.0521 32.3182 41.6505C31.7198 42.2489 31.0089 42.723 30.2265 43.0455C29.4441 43.3681 28.6057 43.5327 27.7594 43.5298C26.9132 43.527 26.0758 43.3568 25.2956 43.029C24.5154 42.7013 23.8077 42.2224 23.2133 41.62C22.0445 40.4098 21.3977 38.7889 21.4124 37.1065C21.427 35.4241 22.1018 33.8147 23.2915 32.625C24.4812 31.4353 26.0906 30.7604 27.773 30.7458C29.4554 30.7312 31.0763 31.378 32.2865 32.5468L32.2877 32.5457ZM32.2877 32.5457L37.0827 27.7507L32.2877 32.5457ZM37.0827 27.7507L40.5827 31.2507L44.666 27.1673L41.166 23.6673L37.0827 27.7507Z" stroke="#3F91F5" stroke-width="2.33333" stroke-linecap="round" stroke-linejoin="round"/>
<rect x="5" y="5" width="56" height="56" rx="28" stroke="#F7F7FC" stroke-width="10"/>
</svg>
