<svg width="26" height="23" viewBox="0 0 26 23" fill="none" xmlns="http://www.w3.org/2000/svg">
<path fill-rule="evenodd" clip-rule="evenodd" d="M8.30393 22.0892L8.3105 22.9992L17.6014 22.9966L17.6155 22.0899C14.3156 22.499 14.6793 18.3325 14.7231 16.2804C17.3933 16.1524 19.2348 15.5562 21.0903 13.8583C23.3547 11.7863 23.4087 8.42156 23.6197 5.62319C23.6957 4.61609 23.8384 3.17809 24.2401 2.35837C24.4965 1.83533 24.7553 1.60391 25.1344 1.31484C25.9695 0.678135 25.9608 0.642844 25.6562 0.26442C24.9352 0.0689295 24.52 0.0948908 23.9895 0.2045C21.6 0.957874 20.4767 3.75579 20.2417 6.05601C20.0532 7.90081 19.8302 9.51243 19.055 11.2252C18.333 12.8205 16.5821 14.7484 14.7038 14.721L14.7057 12.8939L14.7828 5.17544C14.8255 3.39089 15.6965 1.51352 17.6489 1.78093L17.6424 0.88121L8.35856 0.883894L8.34535 1.78123C10.3997 1.49997 11.2154 3.41223 11.2228 5.20482L11.2811 12.8447L11.2876 14.721C9.41155 14.744 7.66377 12.8188 6.94252 11.2252C6.16736 9.51245 5.94438 7.90084 5.75589 6.05603C5.52085 3.75581 4.39753 0.957893 2.00802 0.204519C1.42237 0.0885646 1.06233 0.0689295 0.341341 0.264439C0.0367501 0.642863 0.0280327 0.678172 0.863091 1.31486C1.24222 1.60393 1.50108 1.83535 1.75742 2.35839C2.15914 3.17813 2.30186 4.61611 2.37781 5.62321C2.58882 8.4216 2.64284 11.7863 4.90727 13.8583C6.76276 15.5562 8.60425 16.1524 11.2744 16.2805C11.3198 18.4007 11.1664 22.4894 8.30398 22.0892H8.30393Z" fill="#3F91F5"/>
</svg>
