<svg width="48" height="48" viewBox="0 0 48 48" fill="none" xmlns="http://www.w3.org/2000/svg">
<rect width="48" height="48" rx="24" fill="#1A1D1F"/>
<path d="M28.6089 20.4753C28.5505 20.467 28.4922 20.467 28.4339 20.4753C27.1422 20.4337 26.1172 19.3753 26.1172 18.0753C26.1172 16.7503 27.1922 15.667 28.5255 15.667C29.8505 15.667 30.9339 16.742 30.9339 18.0753C30.9255 19.3753 29.9005 20.4337 28.6089 20.4753Z" fill="#FEFEFE"/>
<path d="M31.3257 26.2503C30.3923 26.8753 29.084 27.1087 27.8757 26.9503C28.1923 26.267 28.359 25.5087 28.3673 24.7087C28.3673 23.8753 28.184 23.0837 27.834 22.392C29.0673 22.2253 30.3757 22.4587 31.3173 23.0837C32.634 23.9503 32.634 25.3753 31.3257 26.2503Z" fill="#FEFEFE"/>
<path d="M19.3674 20.4753C19.4258 20.467 19.4841 20.467 19.5424 20.4753C20.8341 20.4337 21.8591 19.3753 21.8591 18.0753C21.8591 16.742 20.7841 15.667 19.4508 15.667C18.1258 15.667 17.0508 16.742 17.0508 18.0753C17.0508 19.3753 18.0758 20.4337 19.3674 20.4753Z" fill="#FEFEFE"/>
<path d="M19.4579 24.7079C19.4579 25.5162 19.6329 26.2829 19.9496 26.9745C18.7746 27.0995 17.5496 26.8495 16.6496 26.2579C15.3329 25.3829 15.3329 23.9578 16.6496 23.0828C17.5413 22.4828 18.7996 22.2412 19.9829 22.3745C19.6413 23.0745 19.4579 23.8662 19.4579 24.7079Z" fill="#FEFEFE"/>
<path d="M24.1 27.225C24.0333 27.2167 23.9583 27.2167 23.8833 27.225C22.35 27.175 21.125 25.9167 21.125 24.3667C21.1333 22.7833 22.4083 21.5 24 21.5C25.5833 21.5 26.8667 22.7833 26.8667 24.3667C26.8583 25.9167 25.6417 27.175 24.1 27.225Z" fill="#FEFEFE"/>
<path d="M21.391 28.9502C20.1327 29.7919 20.1327 31.1752 21.391 32.0085C22.8243 32.9669 25.1743 32.9669 26.6077 32.0085C27.866 31.1669 27.866 29.7835 26.6077 28.9502C25.1827 27.9919 22.8327 27.9919 21.391 28.9502Z" fill="#FEFEFE"/>
</svg>
