<svg width="48" height="48" viewBox="0 0 48 48" fill="none" xmlns="http://www.w3.org/2000/svg">
<rect width="48" height="48" rx="24" fill="#1A1D1F"/>
<path fill-rule="evenodd" clip-rule="evenodd" d="M21.4889 17.0544C21.376 16.5274 20.624 16.5274 20.5111 17.0544L19.3166 22.6289C19.0202 24.0121 17.7978 25.0003 16.3832 25.0003H15C14.4477 25.0003 14 24.5526 14 24.0003C14 23.448 14.4477 23.0003 15 23.0003H16.3832C16.8547 23.0003 17.2622 22.6709 17.361 22.2098L18.5555 16.6354C19.1201 14.0005 22.8799 14.0004 23.4445 16.6354L26.5111 30.9461C26.624 31.4731 27.376 31.4731 27.4889 30.9461L28.6834 25.3717C28.9798 23.9885 30.2022 23.0003 31.6168 23.0003H33C33.5523 23.0003 34 23.448 34 24.0003C34 24.5526 33.5523 25.0003 33 25.0003H31.6168C31.1453 25.0003 30.7378 25.3297 30.639 25.7907L29.4445 31.3652C28.8799 34.0001 25.1201 34.0001 24.5555 31.3652L21.4889 17.0544Z" fill="#FCFCFC"/>
</svg>
