<svg width="49" height="48" viewBox="0 0 49 48" fill="none" xmlns="http://www.w3.org/2000/svg">
<rect x="0.666016" width="48" height="48" rx="24" fill="#CABDFF"/>
<path fill-rule="evenodd" clip-rule="evenodd" d="M21.666 20.0839C20.8352 20.2244 20.0394 20.5389 19.3326 21.0112C18.3459 21.6705 17.5769 22.6075 17.1227 23.7039C16.6686 24.8003 16.5498 26.0067 16.7813 27.1705C17.0128 28.3344 17.5843 29.4035 18.4234 30.2426C19.2625 31.0818 20.3316 31.6532 21.4955 31.8847C22.6594 32.1162 23.8658 31.9974 24.9621 31.5433C26.0585 31.0892 26.9955 30.3201 27.6548 29.3334C28.1271 28.6266 28.4417 27.8308 28.5821 27H22.666C22.4008 27 22.1464 26.8946 21.9589 26.7071C21.7714 26.5196 21.666 26.2652 21.666 26V20.0839ZM18.2215 19.3482C19.5371 18.4692 21.0838 18 22.666 18C23.2183 18 23.666 18.4477 23.666 19V25H29.666C30.2183 25 30.666 25.4477 30.666 26C30.666 27.5823 30.1968 29.129 29.3178 30.4446C28.4387 31.7602 27.1893 32.7855 25.7275 33.391C24.2657 33.9965 22.6571 34.155 21.1053 33.8463C19.5534 33.5376 18.128 32.7757 17.0092 31.6569C15.8903 30.538 15.1284 29.1126 14.8197 27.5607C14.5111 26.0089 14.6695 24.4003 15.275 22.9385C15.8805 21.4767 16.9059 20.2273 18.2215 19.3482Z" fill="#1A1D1F"/>
<path fill-rule="evenodd" clip-rule="evenodd" d="M25.9589 14.2929C26.1464 14.1054 26.4008 14 26.666 14C28.7877 14 30.8226 14.8429 32.3229 16.3431C33.8232 17.8434 34.666 19.8783 34.666 22C34.666 22.5523 34.2183 23 33.666 23L26.666 23C26.4008 23 26.1464 22.8946 25.9589 22.7071C25.7714 22.5196 25.666 22.2652 25.666 22V15C25.666 14.7348 25.7714 14.4804 25.9589 14.2929ZM27.666 16.0839V21L32.5821 21C32.3759 19.7797 31.7953 18.644 30.9087 17.7574C30.022 16.8707 28.8863 16.2902 27.666 16.0839Z" fill="#1A1D1F"/>
</svg>
