<svg width="66" height="66" viewBox="0 0 66 66" fill="none" xmlns="http://www.w3.org/2000/svg">
<rect x="5" y="5" width="56" height="56" rx="28" fill="#DFFFF6"/>
<path d="M44.6673 31.9262V32.9995C44.6659 35.5153 43.8512 37.9633 42.3449 39.9783C40.8385 41.9933 38.7212 43.4674 36.3086 44.1807C33.896 44.8941 31.3175 44.8084 28.9575 43.9365C26.5976 43.0647 24.5827 41.4533 23.2134 39.3428C21.8441 37.2322 21.1937 34.7356 21.3593 32.2252C21.5248 29.7148 22.4974 27.3252 24.132 25.4128C25.7666 23.5003 27.9756 22.1675 30.4295 21.613C32.8835 21.0586 35.451 21.3122 37.749 22.3362M44.6673 23.6662L33.0007 35.3445L29.5007 31.8445" stroke="#00966D" stroke-width="2.33333" stroke-linecap="round" stroke-linejoin="round"/>
<rect x="5" y="5" width="56" height="56" rx="28" stroke="#F2FFFB" stroke-width="10"/>
</svg>
