<svg width="49" height="48" viewBox="0 0 49 48" fill="none" xmlns="http://www.w3.org/2000/svg">
<rect x="0.333984" width="48" height="48" rx="24" fill="#B1E5FC"/>
<path fill-rule="evenodd" clip-rule="evenodd" d="M29.5066 15H29.4876H29.4578H29.428H29.3981H29.368H29.3379H29.3077H29.2774H29.2469H29.2164H29.1858H29.1551H29.1243H29.0935H29.0625H29.0314H29.0003H28.9691H28.9377H28.9063H28.8748H28.8433H28.8116H28.7799H28.748H28.7161H28.6842H28.6521H28.62H28.5878H28.5555H28.5231H28.4907H28.4582H28.4256H28.3929H28.3602H28.3274H28.2946H28.2616H28.2286H28.1956H28.1625H28.1293H28.096H28.0627H28.0293H27.9959H27.9624H27.9288H27.8952H27.8616H27.8278H27.794H27.7602H27.7263H27.6924H27.6584H27.6243H27.5903H27.5561H27.5219H27.4877H27.4534H27.4191H27.3847H27.3503H27.3158H27.2813H27.2468H27.2122H27.1776H27.1429H27.1083H27.0735H27.0388H27.004H26.9691H26.9343H26.8994H26.8644H26.8295H26.7945H26.7595H26.7244H26.6893H26.6543H26.6191H26.584H26.5488H26.5136H26.4784H26.4432H26.4079H26.3727H26.3374H26.3021H26.2668H26.2314H26.1961H26.1607H26.1253H26.09H26.0546H26.0192H25.9838H25.9483H25.9129H25.8775H25.842H25.8066H25.7711H25.7357H25.7003H25.6648H25.6294H25.5939H25.5585H25.523H25.4876H25.4521H25.4167H25.3813H25.3459H25.3105H25.2751H25.2397H25.2043H25.169H25.1336H25.0983H25.063H25.0276H24.9924H24.9571H24.9218H24.8866H24.8514H24.8162H24.781H24.7459H24.7107H24.6756H24.6406H24.6055H24.5705H24.5355H24.5005H24.4656H24.4307H24.3958H24.361H24.3262H24.2914H24.2567H24.222H24.1873H24.1527H24.1181H24.0835H24.049H24.0146H23.9801H23.9458H23.9114H23.8771H23.8429H23.8087H23.7745H23.7404H23.7064H23.6724H23.6384H23.6045H23.5707H23.5369H23.5032H23.4695H23.4359H23.4023H23.3688H23.3353H23.3019H23.2686H23.2354H23.2021H23.169H23.1359H23.1029H23.07H23.0371H23.0043H22.9716H22.9389H22.9063H22.8738H22.8413H22.809H22.7767H22.7444H22.7123H22.6802H22.6482H22.6163H22.5845H22.5527H22.521H22.4894H22.4579H22.4265H22.3952H22.3639H22.3328H22.3017H22.2707H22.2398H22.209H22.1783H22.1476H22.1171H22.0867H22.0563H22.0261H21.9959H21.9659H21.9359H21.9061H21.8763H21.8467H21.8171H21.7877H21.7584H21.7291H21.7H21.671H21.6421H21.6133H21.5846H21.556H21.5275H21.4991H21.4709H21.4427H21.4147H21.3868H21.359H21.3314H21.3038H21.2764H21.2491H21.2219H21.1948H21.1678H21.141H21.1143H21.0877H21.0613H21.035H21.0088H20.9827H20.9568H20.931H20.9053H20.8798H20.8544H20.8291H20.804H20.779H20.7541H20.7294H20.7048H20.6804H20.6561H20.6319H20.6079H20.584H20.5603H20.5367H20.5132H20.4899H20.4668H20.4438H20.421H20.3983H20.3757H20.3533H20.3311H20.309H20.2871H20.2653H20.2437H20.2222H20.2009H20.1798H20.1588H20.138H20.1173H20.0968H20.0765H20.0563H20.0363H20.0165H19.9968H19.9773H19.958H19.9388H19.9198H19.901H19.8824H19.8639H19.8456H19.8275H19.8096H19.7918H19.7742H19.7568H19.7396H19.7225H19.7057H19.689H19.6725H19.6562H19.6401H19.6241H19.6084H19.5928H19.5774H19.5622H19.5472H19.5324H19.5178H19.5034H19.4892H19.4752H19.4613H19.4477H19.4342H19.421H19.408H19.3951H19.3825H19.3701H19.3578H19.3458H19.334C19.009 15 18.8317 15.0784 18.7324 15.1446C18.6269 15.2149 18.5441 15.3158 18.4784 15.4472C18.4108 15.5825 18.372 15.7299 18.3516 15.8519C18.3419 15.9105 18.3374 15.9572 18.3353 15.9853C18.3345 15.997 18.3341 16.005 18.334 16.009V28H26.334C26.8863 28 27.334 28.4477 27.334 29V31.991C27.3341 31.995 27.3345 32.003 27.3353 32.0147C27.3374 32.0428 27.3419 32.0895 27.3516 32.1481C27.372 32.2701 27.4108 32.4175 27.4784 32.5528C27.5441 32.6842 27.6269 32.7851 27.7324 32.8554C27.8317 32.9216 28.009 33 28.334 33C28.659 33 28.8363 32.9216 28.9355 32.8554C29.041 32.7851 29.1239 32.6842 29.1896 32.5528C29.2572 32.4175 29.296 32.2701 29.3163 32.1481C29.3261 32.0895 29.3306 32.0428 29.3326 32.0147C29.3335 32.003 29.3338 31.995 29.334 31.991V19V16H30.334C29.334 16 29.334 15.9995 29.334 15.999L29.334 15.9979L29.334 15.9957L29.334 15.9906L29.3342 15.9781C29.3343 15.9688 29.3346 15.9575 29.335 15.9442C29.3359 15.9178 29.3375 15.8836 29.3404 15.8428C29.3462 15.7615 29.3574 15.652 29.3788 15.5231C29.4033 15.3765 29.4425 15.1965 29.5066 15ZM16.334 28V16H17.334C16.334 16 16.334 15.9995 16.334 15.999L16.334 15.9979L16.334 15.9957L16.334 15.9906L16.3342 15.9781C16.3343 15.9688 16.3346 15.9575 16.335 15.9442C16.3359 15.9178 16.3375 15.8836 16.3404 15.8428C16.3462 15.7615 16.3574 15.652 16.3788 15.5231C16.421 15.2701 16.5072 14.9175 16.6896 14.5528C16.8739 14.1842 17.166 13.7851 17.623 13.4804C18.0863 13.1716 18.659 13 19.334 13H19.3458H19.3578H19.3701H19.3825H19.3951H19.408H19.421H19.4342H19.4477H19.4613H19.4752H19.4892H19.5034H19.5178H19.5324H19.5472H19.5622H19.5774H19.5928H19.6084H19.6241H19.6401H19.6562H19.6725H19.689H19.7057H19.7225H19.7396H19.7568H19.7742H19.7918H19.8096H19.8275H19.8456H19.8639H19.8824H19.901H19.9198H19.9388H19.958H19.9773H19.9968H20.0165H20.0363H20.0563H20.0765H20.0968H20.1173H20.138H20.1588H20.1798H20.2009H20.2222H20.2437H20.2653H20.2871H20.309H20.3311H20.3533H20.3757H20.3983H20.421H20.4438H20.4668H20.4899H20.5132H20.5367H20.5603H20.584H20.6079H20.6319H20.6561H20.6804H20.7048H20.7294H20.7541H20.779H20.804H20.8291H20.8544H20.8798H20.9053H20.931H20.9568H20.9827H21.0088H21.035H21.0613H21.0877H21.1143H21.141H21.1678H21.1948H21.2219H21.2491H21.2764H21.3038H21.3314H21.359H21.3868H21.4147H21.4427H21.4709H21.4991H21.5275H21.556H21.5846H21.6133H21.6421H21.671H21.7H21.7291H21.7584H21.7877H21.8171H21.8467H21.8763H21.9061H21.9359H21.9659H21.9959H22.0261H22.0563H22.0867H22.1171H22.1476H22.1783H22.209H22.2398H22.2707H22.3017H22.3328H22.3639H22.3952H22.4265H22.4579H22.4894H22.521H22.5527H22.5845H22.6163H22.6482H22.6802H22.7123H22.7444H22.7767H22.809H22.8413H22.8738H22.9063H22.9389H22.9716H23.0043H23.0371H23.07H23.1029H23.1359H23.169H23.2021H23.2354H23.2686H23.3019H23.3353H23.3688H23.4023H23.4359H23.4695H23.5032H23.5369H23.5707H23.6045H23.6384H23.6724H23.7064H23.7404H23.7745H23.8087H23.8429H23.8771H23.9114H23.9458H23.9801H24.0146H24.049H24.0835H24.1181H24.1527H24.1873H24.222H24.2567H24.2914H24.3262H24.361H24.3958H24.4307H24.4656H24.5005H24.5355H24.5705H24.6055H24.6406H24.6756H24.7107H24.7459H24.781H24.8162H24.8514H24.8866H24.9218H24.9571H24.9924H25.0276H25.063H25.0983H25.1336H25.169H25.2043H25.2397H25.2751H25.3105H25.3459H25.3813H25.4167H25.4521H25.4876H25.523H25.5585H25.5939H25.6294H25.6648H25.7003H25.7357H25.7711H25.8066H25.842H25.8775H25.9129H25.9483H25.9838H26.0192H26.0546H26.09H26.1253H26.1607H26.1961H26.2314H26.2668H26.3021H26.3374H26.3727H26.4079H26.4432H26.4784H26.5136H26.5488H26.584H26.6191H26.6543H26.6893H26.7244H26.7595H26.7945H26.8295H26.8644H26.8994H26.9343H26.9691H27.004H27.0388H27.0735H27.1083H27.1429H27.1776H27.2122H27.2468H27.2813H27.3158H27.3503H27.3847H27.4191H27.4534H27.4877H27.5219H27.5561H27.5903H27.6243H27.6584H27.6924H27.7263H27.7602H27.794H27.8278H27.8616H27.8952H27.9288H27.9624H27.9959H28.0293H28.0627H28.096H28.1293H28.1625H28.1956H28.2286H28.2616H28.2946H28.3274H28.3602H28.3929H28.4256H28.4582H28.4907H28.5231H28.5555H28.5878H28.62H28.6521H28.6842H28.7161H28.748H28.7799H28.8116H28.8433H28.8748H28.9063H28.9377H28.9691H29.0003H29.0314H29.0625H29.0935H29.1243H29.1551H29.1858H29.2164H29.2469H29.2774H29.3077H29.3379H29.368H29.3981H29.428H29.4578H29.4876H29.5172H29.5467H29.5761H29.6055H29.6347H29.6638H29.6928H29.7217H29.7505H29.7791H29.8077H29.8362H29.8645H29.8927H29.9208H29.9488H29.9767H30.0045H30.0321H30.0597H30.0871H30.1144H30.1415H30.1686H30.1955H30.2223H30.249H30.2755H30.3019H30.3282H30.3544H30.3804H30.4064H30.4321H30.4578H30.4833H30.5087H30.5339H30.559H30.584H30.6088H30.6335H30.6581H30.6825H30.7068H30.7309H30.7549H30.7787H30.8024H30.826H30.8494H30.8727H30.8958H30.9188H30.9416H30.9642H30.9867H31.0091H31.0313H31.0534H31.0753H31.097H31.1186H31.14H31.1613H31.1824H31.2034H31.2241H31.2448H31.2652H31.2855H31.3057H31.3256H31.3454H31.3651H31.3845H31.4038H31.4229H31.4419H31.4607H31.4793H31.4977H31.516H31.5341H31.552H31.5697H31.5872H31.6046H31.6218H31.6388H31.6556H31.6723H31.6887H31.705H31.7211H31.737H31.7527H31.7683H31.7836H31.7987H31.8137H31.8285H31.843H31.8574H31.8716H31.8856H31.8994H31.913H31.9264H31.9396H31.9526H31.9654H31.978H31.9904H32.0026H32.0145H32.0263H32.0379H32.0493H32.0604H32.0714H32.0821H32.0926H32.103H32.1131H32.123H32.1326H32.1421H32.1514H32.1604H32.1692H32.1778H32.1862H32.1943H32.2023H32.21H32.2174H32.2247H32.2318H32.2386H32.2451H32.2515H32.2576H32.2635H32.2692H32.2746H32.2799H32.2848H32.2896H32.2941H32.2983H32.3024H32.3062H32.3097H32.313H32.3161H32.319H32.3215H32.3239H32.326H32.3279H32.3295H32.3309H32.332H32.3329H32.3335H32.3339C32.3339 13 32.3339 13 32.334 13C33.009 13 33.5817 13.1716 34.0449 13.4804C34.5019 13.7851 34.7941 14.1842 34.9784 14.5528C35.1608 14.9175 35.247 15.2701 35.2891 15.5231C35.3106 15.652 35.3217 15.7615 35.3275 15.8428C35.3305 15.8836 35.3321 15.9178 35.3329 15.9442L35.3335 15.9625L35.3338 15.9781L35.3339 15.9906L35.334 15.9957L35.334 15.9979L35.334 15.999C35.334 15.9995 35.334 16 34.334 16H35.334V19C35.334 19.5523 34.8863 20 34.334 20H31.334V32H30.334C31.334 32 31.334 32.0005 31.334 32.001L31.334 32.0021L31.334 32.0043L31.3339 32.0094L31.3338 32.0219C31.3336 32.0312 31.3334 32.0425 31.3329 32.0558C31.3321 32.0822 31.3305 32.1164 31.3275 32.1572C31.3217 32.2385 31.3106 32.348 31.2891 32.4769C31.247 32.7299 31.1608 33.0825 30.9784 33.4472C30.7941 33.8158 30.5019 34.2149 30.0449 34.5196C29.5817 34.8284 29.009 35 28.334 35H28.3222H28.3103H28.2982H28.286H28.2737H28.2612H28.2486H28.2359H28.223H28.21H28.1969H28.1836H28.1702H28.1567H28.1431H28.1293H28.1154H28.1013H28.0872H28.0729H28.0584H28.0439H28.0292H28.0144H27.9995H27.9845H27.9693H27.954H27.9386H27.923H27.9074H27.8916H27.8757H27.8597H27.8435H27.8273H27.8109H27.7944H27.7778H27.7611H27.7443H27.7273H27.7102H27.693H27.6757H27.6583H27.6408H27.6232H27.6054H27.5876H27.5696H27.5515H27.5333H27.515H27.4966H27.4781H27.4595H27.4408H27.4219H27.403H27.3839H27.3648H27.3455H27.3262H27.3067H27.2871H27.2675H27.2477H27.2278H27.2079H27.1878H27.1676H27.1474H27.127H27.1066H27.086H27.0653H27.0446H27.0237H27.0028H26.9818H26.9606H26.9394H26.9181H26.8967H26.8752H26.8536H26.8319H26.8102H26.7883H26.7663H26.7443H26.7222H26.7H26.6777H26.6553H26.6328H26.6102H26.5876H26.5649H26.5421H26.5192H26.4962H26.4731H26.45H26.4268H26.4035H26.3801H26.3566H26.3331H26.3095H26.2858H26.262H26.2381H26.2142H26.1902H26.1661H26.142H26.1178H26.0935H26.0691H26.0446H26.0201H25.9955H25.9709H25.9462H25.9214H25.8965H25.8715H25.8465H25.8215H25.7963H25.7711H25.7459H25.7205H25.6951H25.6696H25.6441H25.6185H25.5929H25.5671H25.5414H25.5155H25.4896H25.4637H25.4376H25.4116H25.3854H25.3592H25.333H25.3067H25.2803H25.2539H25.2274H25.2009H25.1743H25.1476H25.1209H25.0942H25.0674H25.0405H25.0136H24.9867H24.9597H24.9326H24.9055H24.8784H24.8512H24.8239H24.7966H24.7693H24.7419H24.7145H24.687H24.6595H24.632H24.6044H24.5767H24.549H24.5213H24.4935H24.4657H24.4379H24.41H24.3821H24.3541H24.3261H24.2981H24.27H24.2419H24.2137H24.1855H24.1573H24.1291H24.1008H24.0725H24.0441H24.0158H23.9873H23.9589H23.9304H23.9019H23.8734H23.8449H23.8163H23.7877H23.759H23.7303H23.7017H23.6729H23.6442H23.6154H23.5866H23.5578H23.529H23.5001H23.4713H23.4424H23.4134H23.3845H23.3555H23.3266H23.2976H23.2686H23.2395H23.2105H23.1814H23.1523H23.1232H23.0941H23.065H23.0359H23.0067H22.9776H22.9484H22.9192H22.89H22.8608H22.8316H22.8024H22.7731H22.7439H22.7146H22.6854H22.6561H22.6269H22.5976H22.5683H22.539H22.5097H22.4805H22.4512H22.4219H22.3926H22.3633H22.334H22.3047H22.2754H22.2461H22.2168H22.1875H22.1582H22.1289H22.0997H22.0704H22.0411H22.0118H21.9826H21.9533H21.9241H21.8948H21.8656H21.8364H21.8072H21.778H21.7488H21.7196H21.6904H21.6612H21.6321H21.603H21.5738H21.5447H21.5156H21.4866H21.4575H21.4284H21.3994H21.3704H21.3414H21.3124H21.2835H21.2545H21.2256H21.1967H21.1678H21.139H21.1101H21.0813H21.0525H21.0238H20.995H20.9663H20.9376H20.909H20.8803H20.8517H20.8231H20.7946H20.766H20.7375H20.7091H20.6806H20.6522H20.6238H20.5955H20.5672H20.5389H20.5106H20.4824H20.4542H20.4261H20.398H20.3699H20.3419H20.3139H20.2859H20.258H20.2301H20.2022H20.1744H20.1467H20.1189H20.0913H20.0636H20.036H20.0085H19.9809H19.9535H19.926H19.8987H19.8713H19.844H19.8168H19.7896H19.7624H19.7353H19.7083H19.6813H19.6543H19.6274H19.6006H19.5738H19.547H19.5203H19.4937H19.4671H19.4406H19.4141H19.3877H19.3613H19.335H19.3087H19.2825H19.2564H19.2303H19.2043H19.1783H19.1524H19.1266H19.1008H19.0751H19.0494H19.0239H18.9983H18.9729H18.9475H18.9221H18.8968H18.8716H18.8465H18.8214H18.7964H18.7715H18.7466H18.7218H18.6971H18.6724H18.6478H18.6233H18.5989H18.5745H18.5502H18.526H18.5018H18.4778H18.4538H18.4298H18.406H18.3822H18.3585H18.3349H18.3113H18.2879H18.2645H18.2412H18.218H18.1948H18.1718H18.1488H18.1259H18.1031H18.0804H18.0577H18.0352H18.0127H17.9903H17.968H17.9458H17.9237H17.9016H17.8797H17.8578H17.836H17.8144H17.7928H17.7713H17.7499H17.7285H17.7073H17.6862H17.6652H17.6442H17.6234H17.6026H17.582H17.5614H17.5409H17.5206H17.5003H17.4802H17.4601H17.4401H17.4203H17.4005H17.3808H17.3613H17.3418H17.3224H17.3032H17.284H17.265H17.246H17.2272H17.2085H17.1899H17.1714H17.1529H17.1346H17.1165H17.0984H17.0804H17.0625H17.0448H17.0272H17.0096H16.9922H16.9749H16.9577H16.9407H16.9237H16.9069H16.8902H16.8735H16.8571H16.8407H16.8244H16.8083H16.7923H16.7764H16.7606H16.7449H16.7294H16.714H16.6987H16.6835H16.6685H16.6535H16.6388H16.6241H16.6095H16.5951H16.5808H16.5666H16.5526H16.5387H16.5249H16.5113H16.4977H16.4843H16.4711H16.4579H16.4449H16.4321H16.4193H16.4067H16.3943H16.382H16.3698H16.3577H16.3458H16.334C15.659 35 15.0863 34.8284 14.623 34.5196C14.166 34.2149 13.8739 33.8158 13.6896 33.4472C13.5072 33.0825 13.421 32.7299 13.3788 32.4769C13.3574 32.348 13.3462 32.2385 13.3404 32.1572C13.3375 32.1164 13.3359 32.0822 13.335 32.0558C13.3346 32.0425 13.3343 32.0312 13.3342 32.0219L13.334 32.0094L13.334 32.0043L13.334 32.0021L13.334 32.001C13.334 32.0005 13.334 32 14.334 32H13.334V29C13.334 28.4477 13.7817 28 14.334 28H16.334ZM33.334 18H31.334V16.009C31.3341 16.005 31.3345 15.997 31.3354 15.9853C31.3374 15.9572 31.3419 15.9105 31.3516 15.8519C31.372 15.7299 31.4108 15.5825 31.4784 15.4472C31.5441 15.3158 31.6269 15.2149 31.7324 15.1446C31.8317 15.0784 32.009 15 32.334 15C32.659 15 32.8363 15.0784 32.9355 15.1446C33.041 15.2149 33.1239 15.3158 33.1896 15.4472C33.2572 15.5825 33.296 15.7299 33.3163 15.8519C33.3261 15.9105 33.3306 15.9572 33.3326 15.9853C33.3335 15.997 33.3338 16.005 33.334 16.009V18ZM25.3788 32.4769C25.4033 32.6235 25.4425 32.8035 25.5066 33H25.4896H25.4637H25.4376H25.4116H25.3854H25.3592H25.333H25.3067H25.2803H25.2539H25.2274H25.2009H25.1743H25.1476H25.1209H25.0942H25.0674H25.0405H25.0136H24.9867H24.9597H24.9326H24.9055H24.8784H24.8512H24.8239H24.7966H24.7693H24.7419H24.7145H24.687H24.6595H24.632H24.6044H24.5767H24.549H24.5213H24.4935H24.4657H24.4379H24.41H24.3821H24.3541H24.3261H24.2981H24.27H24.2419H24.2137H24.1855H24.1573H24.1291H24.1008H24.0725H24.0441H24.0158H23.9873H23.9589H23.9304H23.9019H23.8734H23.8449H23.8163H23.7877H23.759H23.7303H23.7017H23.6729H23.6442H23.6154H23.5866H23.5578H23.529H23.5001H23.4713H23.4424H23.4134H23.3845H23.3555H23.3266H23.2976H23.2686H23.2395H23.2105H23.1814H23.1523H23.1232H23.0941H23.065H23.0359H23.0067H22.9776H22.9484H22.9192H22.89H22.8608H22.8316H22.8024H22.7731H22.7439H22.7146H22.6854H22.6561H22.6269H22.5976H22.5683H22.539H22.5097H22.4805H22.4512H22.4219H22.3926H22.3633H22.334H22.3047H22.2754H22.2461H22.2168H22.1875H22.1582H22.1289H22.0997H22.0704H22.0411H22.0118H21.9826H21.9533H21.9241H21.8948H21.8656H21.8364H21.8072H21.778H21.7488H21.7196H21.6904H21.6612H21.6321H21.603H21.5738H21.5447H21.5156H21.4866H21.4575H21.4284H21.3994H21.3704H21.3414H21.3124H21.2835H21.2545H21.2256H21.1967H21.1678H21.139H21.1101H21.0813H21.0525H21.0238H20.995H20.9663H20.9376H20.909H20.8803H20.8517H20.8231H20.7946H20.766H20.7375H20.7091H20.6806H20.6522H20.6238H20.5955H20.5672H20.5389H20.5106H20.4824H20.4542H20.4261H20.398H20.3699H20.3419H20.3139H20.2859H20.258H20.2301H20.2022H20.1744H20.1467H20.1189H20.0913H20.0636H20.036H20.0085H19.9809H19.9535H19.926H19.8987H19.8713H19.844H19.8168H19.7896H19.7624H19.7353H19.7083H19.6813H19.6543H19.6274H19.6006H19.5738H19.547H19.5203H19.4937H19.4671H19.4406H19.4141H19.3877H19.3613H19.335H19.3087H19.2825H19.2564H19.2303H19.2043H19.1783H19.1524H19.1266H19.1008H19.0751H19.0494H19.0239H18.9983H18.9729H18.9475H18.9221H18.8968H18.8716H18.8465H18.8214H18.7964H18.7715H18.7466H18.7218H18.6971H18.6724H18.6478H18.6233H18.5989H18.5745H18.5502H18.526H18.5018H18.4778H18.4538H18.4298H18.406H18.3822H18.3585H18.3349H18.3113H18.2879H18.2645H18.2412H18.218H18.1948H18.1718H18.1488H18.1259H18.1031H18.0804H18.0577H18.0352H18.0127H17.9903H17.968H17.9458H17.9237H17.9016H17.8797H17.8578H17.836H17.8144H17.7928H17.7713H17.7499H17.7285H17.7073H17.6862H17.6652H17.6442H17.6234H17.6026H17.582H17.5614H17.5409H17.5206H17.5003H17.4802H17.4601H17.4401H17.4203H17.4005H17.3808H17.3613H17.3418H17.3224H17.3032H17.284H17.265H17.246H17.2272H17.2085H17.1899H17.1714H17.1529H17.1346H17.1165H17.0984H17.0804H17.0625H17.0448H17.0272H17.0096H16.9922H16.9749H16.9577H16.9407H16.9237H16.9069H16.8902H16.8735H16.8571H16.8407H16.8244H16.8083H16.7923H16.7764H16.7606H16.7449H16.7294H16.714H16.6987H16.6835H16.6685H16.6535H16.6388H16.6241H16.6095H16.5951H16.5808H16.5666H16.5526H16.5387H16.5249H16.5113H16.4977H16.4843H16.4711H16.4579H16.4449H16.4321H16.4193H16.4067H16.3943H16.382H16.3698H16.3577H16.3458H16.334C16.009 33 15.8317 32.9216 15.7324 32.8554C15.6269 32.7851 15.5441 32.6842 15.4784 32.5528C15.4108 32.4175 15.372 32.2701 15.3516 32.1481C15.3419 32.0895 15.3374 32.0428 15.3353 32.0147C15.3345 32.003 15.3341 31.995 15.334 31.991V30H17.334H25.334V32H26.334C25.334 32 25.334 32.0005 25.334 32.001L25.334 32.0021L25.334 32.0043L25.334 32.0094L25.3342 32.0219C25.3343 32.0278 25.3344 32.0345 25.3346 32.042C25.3347 32.0463 25.3349 32.0509 25.335 32.0558C25.3359 32.0822 25.3375 32.1164 25.3404 32.1572C25.3462 32.2385 25.3574 32.348 25.3788 32.4769Z" fill="#14142B"/>
<path d="M21.334 20H26.334" stroke="#14142B" stroke-width="2" stroke-linecap="round" stroke-linejoin="round"/>
<path d="M21.334 24H26.334" stroke="#14142B" stroke-width="2" stroke-linecap="round" stroke-linejoin="round"/>
</svg>
