<svg width="48" height="48" viewBox="0 0 48 48" fill="none" xmlns="http://www.w3.org/2000/svg">
<circle cx="24" cy="24" r="24" fill="#3F91F5"/>
<g clip-path="url(#clip0_920_23808)">
<path fill-rule="evenodd" clip-rule="evenodd" d="M21.9926 29.6201L21.9957 30.0439L26.3236 30.0428L26.3303 29.6204C24.793 29.811 24.9625 27.8701 24.9829 26.9141C26.2267 26.8545 27.0845 26.5768 27.9489 25.7858C29.0037 24.8206 29.0289 23.2532 29.1272 21.9496C29.1626 21.4805 29.2291 20.8106 29.4162 20.4288C29.5356 20.1851 29.6562 20.0773 29.8328 19.9427C30.2218 19.6461 30.2177 19.6296 30.0759 19.4534C29.74 19.3623 29.5466 19.3744 29.2995 19.4254C28.1864 19.7764 27.6631 21.0797 27.5536 22.1513C27.4658 23.0106 27.3619 23.7614 27.0008 24.5592C26.6645 25.3024 25.8489 26.2005 24.9738 26.1877L24.9748 25.3366L25.0107 21.7411C25.0305 20.9098 25.4363 20.0352 26.3458 20.1598L26.3428 19.7407L22.018 19.7419L22.0119 20.1599C22.9689 20.0289 23.3488 20.9197 23.3523 21.7548L23.3795 25.3137L23.3825 26.1877C22.5086 26.1984 21.6944 25.3016 21.3584 24.5592C20.9973 23.7614 20.8934 23.0107 20.8056 22.1513C20.6961 21.0798 20.1729 19.7764 19.0597 19.4254C18.7869 19.3714 18.6192 19.3623 18.2834 19.4534C18.1415 19.6296 18.1374 19.6461 18.5264 19.9427C18.703 20.0773 18.8236 20.1851 18.943 20.4288C19.1301 20.8107 19.1966 21.4805 19.232 21.9497C19.3303 23.2532 19.3555 24.8206 20.4103 25.7858C21.2747 26.5768 22.1325 26.8545 23.3764 26.9142C23.3975 27.9018 23.326 29.8065 21.9926 29.6201H21.9926Z" fill="#FEFEFE"/>
<path fill-rule="evenodd" clip-rule="evenodd" d="M33.7837 26.8782C33.8326 28.2035 33.9245 29.8071 35.3594 29.6065L35.3552 30.0431L30.4487 30.0414L30.4395 29.607C31.8614 29.8012 31.8742 28.2345 31.9297 26.9198C32.0026 25.1968 31.9766 23.4917 31.7942 21.782C31.7068 20.6489 31.446 20.1237 30.858 19.7539C34.166 21.1544 33.6715 23.8394 33.7837 26.8782H33.7837Z" fill="#FEFEFE"/>
<path d="M24.1806 19.2332C24.7874 19.2332 25.2792 18.7333 25.2792 18.1166C25.2792 17.4999 24.7874 17 24.1806 17C23.5739 17 23.082 17.4999 23.082 18.1166C23.082 18.7333 23.5739 19.2332 24.1806 19.2332Z" fill="#F4BF6F"/>
<path fill-rule="evenodd" clip-rule="evenodd" d="M14.5757 26.8782C14.5268 28.2035 14.4349 29.8071 13 29.6065L13.0043 30.0431L17.9108 30.0414L17.92 29.607C16.498 29.8012 16.4853 28.2345 16.4297 26.9198C16.3568 25.1968 16.3828 23.4917 16.5652 21.782C16.6526 20.6489 16.9134 20.1237 17.5014 19.7539C14.1935 21.1544 14.6879 23.8394 14.5757 26.8782H14.5757Z" fill="#FEFEFE"/>
</g>
<defs>
<clipPath id="clip0_920_23808">
<rect width="22.36" height="13.0433" fill="white" transform="translate(13 17)"/>
</clipPath>
</defs>
</svg>
